<svg width="204.00000000000003" height="204.00000000000003" xmlns="http://www.w3.org/2000/svg" version="1.1">
 <g>
  <title _mstTextHash="5637814" _mstHash="490">第 1 层</title>
  <path d="m101,-0.73801c0.99,0 1.98,0 3,0c1.59857,1.88783 2.95247,3.6993 4.3125,5.75c0.59603,0.88692 0.59603,0.88692 1.2041,1.79175c12.29655,18.65143 18.33714,41.49602 18.58887,63.79809c0.12416,10.57915 0.32228,18.00725 6.89453,26.66016c8.31481,15.30807 8.24551,36.08703 8,53c-3.97865,-1.22765 -5.25345,-3.76606 -7.14697,-7.30786c-0.364,-0.70278 -0.728,-1.40556 -1.10303,-2.12964c-3.35828,-6.27543 -6.96217,-11.85665 -11.41406,-17.42578c-0.44086,-0.70512 -0.88172,-1.41024 -1.33594,-2.13672c0.495,-1.485 0.495,-1.485 1,-3c-5.28,-0.33 -10.56,-0.66 -16,-1c0,0.99 0,1.98 0,3c4.29,0 8.58,0 13,0c-1,5 -1,5 -3,9c-3.63,0 -7.26,0 -11,0c-0.09088,1.62809 -0.09088,1.62809 -0.18359,3.28906c-0.08447,1.44532 -0.16912,2.89064 -0.25391,4.33594c-0.03932,0.71285 -0.07863,1.4257 -0.11914,2.16016c-0.24646,4.13288 -0.67806,8.13753 -1.44336,12.21484c-1.32,0 -2.64,0 -4,0c-1.62479,-9.54563 -2.19759,-18.31787 -2,-28c-4.62,0 -9.24,0 -14,0c0,-0.99 0,-1.98 0,-3c4.29,0 8.58,0 13,0c0,-0.99 0,-1.98 0,-3c-5.61,0 -11.22,0 -17,0c0.66,1.32 1.32,2.64 2,4c-0.54527,0.76441 -1.09055,1.52883 -1.65234,2.31641c-4.77135,6.77775 -9.23593,13.62686 -13.3396,20.83227c-1.8016,3.10531 -2.96661,4.82369 -6.00806,6.85132c-0.59473,-20.25394 0.65367,-43.51152 12,-61c1.485,-0.99 1.485,-0.99 3,-2c0.33,5.94 0.66,11.88 1,18c5.94,-0.33 11.88,-0.66 18,-1c-0.11835,-4.80191 -0.11835,-4.80191 -0.27026,-9.60278c-0.03579,-2.87309 -0.03366,-4.92016 1.53198,-7.37769c1.73828,-1.01953 1.73828,-1.01953 5.73828,-1.01953c0,-4.95 0,-9.9 0,-15c-2.97,-0.495 -2.97,-0.495 -6,-1c-4.18783,-3.53639 -5.79471,-5.82393 -6.3125,-11.3125c0.37199,-4.38953 1.50598,-6.33526 4.3125,-9.6875c3.02556,-2.08007 4.14475,-2 8,-2c0,-5.94 0,-11.88 0,-18c-5.94,0 -11.88,0 -18,0c0.97821,-4.89103 2.41574,-8.36909 4.625,-12.75c0.53089,-1.05973 0.53089,-1.05973 1.07251,-2.14087c3.04486,-5.91668 6.57217,-11.37881 11.30249,-16.10913z" fill="#2498D4" id="svg_1"/>
  <path d="m85,124c4.29,0 8.58,0 13,0c0.66,9.24 1.32,18.48 2,28c1.32,0 2.64,0 4,0c0.06059,-1.25297 0.12117,-2.50594 0.18359,-3.79687c0.08443,-1.65106 0.16908,-3.3021 0.25391,-4.95313c0.03932,-0.825 0.07863,-1.65 0.11914,-2.5c0.0419,-0.79922 0.08379,-1.59844 0.12695,-2.42187c0.03666,-0.73316 0.07332,-1.46631 0.11109,-2.22168c0.20647,-2.11823 0.63664,-4.0584 1.20532,-6.10645c1.81242,-0.02687 3.62495,-0.04634 5.4375,-0.0625c1.00934,-0.0116 2.01867,-0.0232 3.05859,-0.03516c2.50391,0.09766 2.50391,0.09766 3.50391,1.09766c1.57043,25.35863 -3.27955,49.4354 -15,72c-3,-1 -3,-1 -4.09766,-2.85547c-0.31839,-0.76957 -0.63679,-1.53914 -0.96484,-2.33203c-0.5124,-1.2317 -0.5124,-1.2317 -1.03516,-2.48828c-1.06702,-2.74839 -2.00373,-5.51606 -2.90234,-8.32422c-0.29777,-0.7425 -0.59555,-1.485 -0.90234,-2.25c-5.66498,-14.36553 -7.28423,-29.66375 -7.09766,-45c0.02554,-2.13016 0.04656,-4.26037 0.0625,-6.39062c0.0116,-0.93361 0.0232,-1.86721 0.03516,-2.82911c-0.02181,-2.80752 -0.02181,-2.80752 -1.09766,-6.53027z" fill="#FCEC95" id="svg_2"/>
  <path d="m85.76587,30.88647c0.74886,0.00524 1.49773,0.01047 2.26929,0.01587c1.0926,0.00375 1.0926,0.00375 2.20727,0.00757c0.93063,0.0091 1.86125,0.01821 2.82007,0.02759c4.42406,0.03093 4.42406,0.03093 8.9375,0.0625c0,5.94 0,11.88 0,18c-2.64,0.99 -5.28,1.98 -8,3c-2.59975,2.92472 -2.96404,4.59725 -3.3125,8.5c0.3028,3.39133 0.60358,5.57042 2.3125,8.5c3.06881,2.26122 5.2526,3.06314 9,4c0,4.95 0,9.9 0,15c-1.65,0.66 -3.3,1.32 -5,2c-1.41775,1.18852 -1.41775,1.18852 -1.09766,4.59765c0.00575,1.48832 0.01876,2.97661 0.03516,4.46485c0.02063,2.61937 0.04125,5.23875 0.0625,7.9375c-6.27,0 -12.54,0 -19,0c-1.20052,-7.20311 -1.24314,-14.22682 -1.25,-21.5c-0.00101,-0.73555 -0.00201,-1.47109 -0.00305,-2.22892c0.04783,-51.74358 0.04783,-51.74358 10.01892,-52.38461z" fill="#65C5E9" id="svg_3"/>
  <path d="m75,89c0.33,0 0.66,0 1,0c0.13277,1.27875 0.26555,2.5575 0.40234,3.875c0.17835,1.70834 0.35673,3.41667 0.53516,5.125c0.08701,0.83918 0.17402,1.67836 0.26367,2.54297c0.08701,0.83144 0.17403,1.66289 0.26367,2.51953c0.07856,0.7541 0.15711,1.5082 0.23804,2.28516c0.39821,3.55477 0.85345,7.10295 1.29712,10.65234c5.61,0 11.22,0 17,0c0.33,-6.93 0.66,-13.86 1,-21c1.32,-0.66 2.64,-1.32 4,-2c0.33,-0.66 0.66,-1.32 1,-2c0.02973,0.83193 0.02973,0.83193 0.06006,1.68066c0.09552,2.52358 0.20509,5.04635 0.31494,7.56934c0.03094,0.8727 0.06188,1.74539 0.09375,2.64453c0.05801,1.26651 0.05801,1.26651 0.11719,2.5586c0.03142,0.77504 0.06284,1.55009 0.09521,2.34863c0.3505,2.41644 1.20683,4.04249 2.31885,6.19824c0.32143,5.35714 0.32143,5.35714 -1,8c0.66,0 1.32,0 2,0c0.35762,10.1327 -0.75156,19.96789 -2,30c-1.32,0 -2.64,0 -4,0c-1.62479,-9.54563 -2.19759,-18.31787 -2,-28c-4.62,0 -9.24,0 -14,0c0,-0.99 0,-1.98 0,-3c4.29,0 8.58,0 13,0c0,-0.99 0,-1.98 0,-3c-5.61,0 -11.22,0 -17,0c0.66,1.32 1.32,2.64 2,4c-0.54527,0.76441 -1.09055,1.52883 -1.65234,2.31641c-4.77135,6.77775 -9.23593,13.62686 -13.3396,20.83227c-1.8016,3.10531 -2.96661,4.82369 -6.00806,6.85132c-0.60855,-20.72455 1.03034,-42.88438 12,-61c0.66,-0.66 1.32,-1.32 2,-2z" fill="#8B0306" id="svg_4"/>
  <path d="m128,89c0.66,0 1.32,0 2,0c10.50025,19.96486 13.32719,39.46052 13,62c-3.97865,-1.22765 -5.25345,-3.76606 -7.14697,-7.30786c-0.364,-0.70278 -0.728,-1.40556 -1.10303,-2.12964c-3.35828,-6.27543 -6.96217,-11.85665 -11.41406,-17.42578c-0.44086,-0.70512 -0.88172,-1.41024 -1.33594,-2.13672c0.33,-0.99 0.66,-1.98 1,-3c-5.28,-0.33 -10.56,-0.66 -16,-1c0,-2.64 0,-5.28 0,-8c0.33,0 0.66,0 1,0c0,1.98 0,3.96 0,6c5.94,0 11.88,0 18,0c0,-2.64 0,-5.28 0,-8c0.1141,-1.64834 0.25504,-3.29532 0.4375,-4.9375c0.09023,-0.83145 0.18047,-1.66289 0.27344,-2.51953c0.14308,-1.25877 0.14308,-1.25877 0.28906,-2.54297c0.14309,-1.30518 0.14309,-1.30518 0.28906,-2.63672c0.23314,-2.12152 0.47149,-4.24246 0.71094,-6.36328z" fill="#87090A" id="svg_5"/>
  <path d="m105,88c2.20313,1.11719 2.20313,1.11719 4,3c0.42578,3.03125 0.42578,3.03125 0.3125,6.5c-0.03674,1.71703 -0.03674,1.71703 -0.07422,3.46875c-0.23828,3.03125 -0.23828,3.03125 -1.23828,6.03125c6.27,0 12.54,0 19,0c-0.33,2.97 -0.66,5.94 -1,9c-5.94,0 -11.88,0 -18,0c-0.33,1.65 -0.66,3.3 -1,5c4.29,0 8.58,0 13,0c-1,5 -1,5 -3,9c-3.63,0 -7.26,0 -11,0c0,-2.64 0,-5.28 0,-8c-0.66,0 -1.32,0 -2,0c0.09766,-2.92969 0.09766,-2.92969 0.19531,-5.85937c-0.04928,-2.156 -0.04928,-2.156 -1.16406,-3.85938c-1.60606,-3.55281 -1.5027,-7.17328 -1.65625,-11.03125c-0.03867,-0.79277 -0.07734,-1.58555 -0.11719,-2.40234c-0.09392,-1.94885 -0.17694,-3.89822 -0.25781,-5.84766c-3.16549,1.62112 -3.16549,1.62112 -3.52417,4.15479c-0.06808,0.86931 -0.13616,1.73862 -0.2063,2.63427c-0.08057,0.94102 -0.16113,1.88203 -0.24414,2.85157c-0.07025,0.98484 -0.14051,1.96968 -0.21289,2.98437c-0.08186,0.99258 -0.16371,1.98516 -0.24805,3.00781c-0.20062,2.45474 -0.38415,4.91087 -0.56445,7.36719c-5.61,0 -11.22,0 -17,0c-0.66,-2.97 -1.32,-5.94 -2,-9c5.94,-0.33 11.88,-0.66 18,-1c-0.11835,-4.80191 -0.11835,-4.80191 -0.27026,-9.60278c-0.03596,-2.88701 -0.0524,-4.91032 1.56713,-7.35425c2.89865,-1.77509 5.40765,-1.38986 8.70313,-1.04297z" fill="#AB090A" id="svg_6"/>
    <path d="m103.08461,-0.24154c1.76222,1.88761 3.97918,3.45843 5.47917,5.50846c0.43488,0.5833 1.83595,1.64969 1.31783,2.49221c4.17426,8.24707 8.28134,13.90965 10.11838,22.24088c-13.09771,0 -26.19542,0 -39.69004,0c11.02501,-30 11.74964,-30.24154 22.77465,-30.24154z" fill="#8D0507" id="svg_7"/>
  <path d="m111,130c1.99955,-0.04254 4.00042,-0.04081 6,0c2.44813,2.44813 1.3125,9.47224 1.3125,12.89648c-0.27702,19.02591 -3.53616,40.93901 -14.3125,57.10352c-0.66,0 -1.32,0 -2,0c-0.59969,-7.0364 0.05258,-13.06416 2.3125,-19.75c5.55577,-16.64567 6.32627,-32.81495 6.6875,-50.25z" fill="#F0AA1D" id="svg_8"/>
  <path d="m87,130c1.98,0 3.96,0 6,0c-0.0348,1.06734 -0.06961,2.13469 -0.10547,3.23438c-0.32195,14.61747 1.70386,28.57237 4.76563,42.84375c0.46957,2.6555 0.48124,5.23529 0.33984,7.92187c0.66,0 1.32,0 2,0c2.14336,3.47663 2.21278,6.21229 2.125,10.25c-0.01805,1.07766 -0.03609,2.15531 -0.05469,3.26563c-0.0232,0.81984 -0.0464,1.63968 -0.07031,2.48437c0.66,0.33 1.32,0.66 2,1c-0.33,0.66 -0.66,1.32 -1,2c-3,-1 -3,-1 -4.09766,-2.85547c-0.31839,-0.76957 -0.63679,-1.53914 -0.96484,-2.33203c-0.5124,-1.2317 -0.5124,-1.2317 -1.03516,-2.48828c-1.06702,-2.74839 -2.00373,-5.51606 -2.90234,-8.32422c-0.29777,-0.7425 -0.59555,-1.485 -0.90234,-2.25c-5.39409,-13.67858 -7.28714,-28.48811 -7.22266,-43.125c-0.00387,-0.90105 -0.00773,-1.80211 -0.01172,-2.73047c0.00129,-0.8598 0.00258,-1.71961 0.00391,-2.60547c0.00113,-0.7765 0.00225,-1.553 0.00342,-2.35302c0.12939,-1.93604 0.12939,-1.93604 1.12939,-3.93604z" fill="#F7D04D" id="svg_9"/>
  <path d="m101,91c0.33,0 0.66,0 1,0c0.01982,0.55462 0.03964,1.10924 0.06006,1.68066c0.09552,2.52358 0.20509,5.04635 0.31494,7.56934c0.03094,0.8727 0.06188,1.74539 0.09375,2.64453c0.03867,0.84434 0.07734,1.68867 0.11719,2.5586c0.03142,0.77504 0.06284,1.55009 0.09521,2.34863c0.3505,2.41644 1.20683,4.04249 2.31885,6.19824c0.32143,5.35714 0.32143,5.35714 -1,8c0.66,0 1.32,0 2,0c0.35762,10.1327 -0.75156,19.96789 -2,30c-1.32,0 -2.64,0 -4,0c-1.55213,-8.61989 -2.11336,-16.7277 -1.95874,-25.45337c0.04876,-4.43013 -0.23281,-8.49283 -1.10376,-12.85913c-1.19613,-6.15276 -1.52469,-12.5759 0.0625,-18.6875c2.05469,-1.36719 2.05469,-1.36719 4,-2c0,-0.66 0,-1.32 0,-2z" fill="#D32C2D" id="svg_10"/>
  <path d="m106,130c1.65,0 3.3,0 5,0c0.62431,20.35236 -0.69001,38.8696 -8,58c-0.33,0 -0.66,0 -1,0c-0.33,-11.88 -0.66,-23.76 -1,-36c0.99,0 1.98,0 3,0c0.06059,-1.25297 0.12117,-2.50594 0.18359,-3.79687c0.08443,-1.65106 0.16908,-3.3021 0.25391,-4.95313c0.05897,-1.2375 0.05897,-1.2375 0.11914,-2.5c0.0419,-0.79922 0.08379,-1.59844 0.12695,-2.42187c0.03666,-0.73316 0.07332,-1.46631 0.11109,-2.22168c0.20647,-2.11823 0.63664,-4.0584 1.20532,-6.10645z" fill="#F5DE5F" id="svg_11"/>
    <path d="m100.8155,0.73801c0.39089,0 0.78177,0 1.1845,0c0,9.9 0,19.8 0,30c-7.03594,0 -14.07188,0 -21.32103,0c3.62539,-11.09499 10.59022,-21.74408 20.13653,-30z" fill="#B81617" id="svg_12"/>
  <path d="m104.0625,51.52344c3.55247,0.87379 4.94828,2.49273 6.9375,5.47656c0.69847,2.83969 0.69847,5.16032 0,8c-1.98922,2.98383 -3.38503,4.60277 -6.9375,5.47657c-3.92313,0.28234 -5.73362,-0.25732 -9.0625,-2.47657c-2.21925,-3.32887 -2.75891,-5.13936 -2.47656,-9.0625c1.46386,-5.95144 5.9477,-7.81647 11.53906,-7.41406z" fill="#F5DC6B" id="svg_13"/>
  <path d="m102,88c-0.3125,2.375 -0.3125,2.375 -1,5c-0.99,0.66 -1.98,1.32 -3,2c-0.59941,2.21422 -0.59941,2.21422 -0.73047,4.78906c-0.08057,0.94102 -0.16113,1.88203 -0.24414,2.85157c-0.07025,0.98484 -0.14051,1.96968 -0.21289,2.98437c-0.08186,0.99258 -0.16371,1.98516 -0.24805,3.00781c-0.20062,2.45474 -0.38415,4.91087 -0.56445,7.36719c-5.61,0 -11.22,0 -17,0c-0.66,-2.97 -1.32,-5.94 -2,-9c5.94,-0.33 11.88,-0.66 18,-1c-0.11835,-4.80191 -0.11835,-4.80191 -0.27026,-9.60278c-0.03579,-2.87309 -0.03366,-4.92016 1.53198,-7.37769c1.73828,-1.01953 1.73828,-1.01953 5.73828,-1.01953z" fill="#B23A48" id="svg_14"/>
  <path d="m109.375,50.8125c2.63622,2.19685 4.42212,3.78055 4.92578,7.27344c0.02435,4.75652 -0.01107,8.18572 -3.30078,11.91406c-4.37577,2.88403 -7.801,3.64988 -13,3c-3.39234,-1.72817 -5.42158,-3.02721 -7.375,-6.3125c-1.16535,-5.01102 -1.31517,-8.38111 1.125,-13c4.84918,-5.79208 11.06303,-6.39902 17.625,-2.875zm-16.375,6.1875c-0.69847,2.83969 -0.69847,5.16031 0,8c1.98922,2.98383 3.38503,4.60277 6.9375,5.47656c3.92313,0.28235 5.73362,-0.25731 9.0625,-2.47656c2.21925,-3.32888 2.75891,-5.13937 2.47656,-9.0625c-0.87379,-3.55247 -2.49273,-4.94828 -5.47656,-6.9375c-5.81663,-1.4307 -9.60815,-0.08778 -13,5z" fill="#61191E" id="svg_15"/>
  <path d="m107,133c0.99,0 1.98,0 3,0c6.51443,13.02886 -0.8883,36.11284 -4.75,49.25c-0.4125,1.2375 -0.825,2.475 -1.25,3.75c-0.33,0 -0.66,0 -1,0c0,-5.61 0,-11.22 0,-17c1.32,-0.66 2.64,-1.32 4,-2c0.66778,-2.54764 0.66778,-2.54764 0.6875,-5.4375c0.14803,-3.17634 0.30128,-5.52885 1.3125,-8.5625c-0.4602,-1.34965 -0.4602,-1.34965 -0.92969,-2.72656c-1.21977,-3.73056 -1.26914,-6.73523 -1.19531,-10.64844c0.01805,-1.24523 0.03609,-2.49047 0.05469,-3.77344c0.0348,-1.41152 0.0348,-1.41152 0.07031,-2.85156z" fill="#FBDA53" id="svg_16"/>
  <path d="m98,52c1.32,0.33 2.64,0.66 4,1c0,5.61 0,11.22 0,17c-6,-1 -6,-1 -7.875,-2.5625c-1.61311,-3.49506 -1.92047,-6.71057 -1.125,-10.4375c2.25,-3.0625 2.25,-3.0625 5,-5z" fill="#F9E7A4" id="svg_17"/>
  <path d="m125,50c0.33,0 0.66,0 1,0c2.86615,19.17261 3.70091,37.77587 1,57c-6.27,0 -12.54,0 -19,0c0.33,-4.62 0.66,-9.24 1,-14c0.33,0 0.66,0 1,0c0,3.96 0,7.92 0,12c2.12563,-0.11377 4.25053,-0.24136 6.375,-0.375c1.18336,-0.06961 2.36672,-0.13922 3.58594,-0.21094c3.14468,-0.11623 3.14468,-0.11623 5.03906,-2.41406c1.47754,-5.74183 1.15037,-11.73787 1.125,-17.625c-0.00193,-1.07653 -0.00387,-2.15306 -0.00586,-3.26221c-0.03407,-6.24471 -0.24187,-12.40638 -0.89648,-18.6206c-0.37175,-4.16097 -0.30576,-8.31883 -0.22266,-12.49219z" fill="#538AB4" id="svg_18"/>
  <path d="m102,110c0.99,0.495 0.99,0.495 2,1c0.44922,1.99609 0.44922,1.99609 0.6875,4.4375c0.08637,0.80309 0.17273,1.60617 0.26172,2.43359c0.05078,2.12891 0.05078,2.12891 -0.94922,4.12891c0.66,0 1.32,0 2,0c0.35762,10.1327 -0.75156,19.96789 -2,30c-0.66,0 -1.32,0 -2,0c0,-13.86 0,-27.72 0,-42z" fill="#A9120D" id="svg_19"/>
  <path d="m108,110c5.94,0 11.88,0 18,0c0,1.98 0,3.96 0,6c-5.94,0 -11.88,0 -18,0c0,-1.98 0,-3.96 0,-6z" fill="#1F3550" id="svg_21"/>
  <path d="m78,110c5.94,0 11.88,0 18,0c0,1.98 0,3.96 0,6c-5.61,0 -11.22,0 -17,0c-0.33,-1.98 -0.66,-3.96 -1,-6z" fill="#4D798F" id="svg_22"/>
  <path d="m75,89c0.33,0 0.66,0 1,0c0.33725,3.04128 0.66992,6.08294 1,9.125c0.09539,0.85594 0.19078,1.71188 0.28906,2.59375c0.47939,4.45147 0.82859,8.79567 0.71094,13.28125c-2.62452,-2.62452 -2.58329,-4.48778 -3.125,-8.125c-0.16758,-1.0957 -0.33516,-2.19141 -0.50781,-3.32031c-0.12117,-0.84305 -0.24235,-1.6861 -0.36719,-2.55469c-0.61875,0.99 -1.2375,1.98 -1.875,3c-0.70125,0.99 -1.4025,1.98 -2.125,3c-0.66,0 -1.32,0 -2,0c-0.66,2.31 -1.32,4.62 -2,7c-1.31104,-3.01309 -0.914,-4.27989 0.07422,-7.49609c0.52608,-1.31853 1.06428,-2.63226 1.61328,-3.94141c0.25717,-0.65549 0.51434,-1.31098 0.7793,-1.98633c1.65745,-4.06015 3.53632,-7.30168 6.5332,-10.57617z" fill="#7A1117" id="svg_23"/>
  <path d="m96,110c3.57386,3.57386 2.69029,9.14792 3,14c-4.95,0 -9.9,0 -15,0c0,-0.99 0,-1.98 0,-3c4.29,0 8.58,0 13,0c0,-0.99 0,-1.98 0,-3c-1.80598,0.0174 -1.80598,0.0174 -3.64844,0.03516c-1.57552,0.00937 -3.15104,0.01847 -4.72656,0.02734c-1.19109,0.01257 -1.19109,0.01257 -2.40625,0.02539c-5.99219,0.02539 -5.99219,0.02539 -8.21875,-1.08789c0.33,-0.99 0.66,-1.98 1,-3c0,0.66 0,1.32 0,2c5.61,0 11.22,0 17,0c0,-1.98 0,-3.96 0,-6z" fill="#762733" id="svg_24"/>
  <path d="m104,51c0,0.33 0,0.66 0,1c-2.01823,0.42318 -4.03646,0.84635 -6.05469,1.26953c-2.31578,0.65356 -2.31578,0.65356 -3.94531,3.73047c-0.64454,5.61604 -0.64454,5.61604 1.75,10.4375c2.16934,1.50649 3.65658,2.19201 6.25,2.5625c0,0.99 0,1.98 0,3c-3.97007,-0.27698 -5.72389,-0.76684 -8.8125,-3.375c-3.41841,-4.10209 -3.63066,-7.3957 -3.1875,-12.625c4.10677,-7.39218 6.25386,-7.12444 14,-6z" fill="#962C39" id="svg_25"/>
  <path d="m106,89c1.485,0.99 1.485,0.99 3,2c0.32813,2.93359 0.32813,2.93359 0.25,6.4375c-0.01547,1.15371 -0.03094,2.30742 -0.04687,3.49609c-0.20313,3.06641 -0.20313,3.06641 -1.20313,6.06641c6.27,0 12.54,0 19,0c-0.33,0.99 -0.66,1.98 -1,3c-5.94,0 -11.88,0 -18,0c-1.14654,-2.29309 -1.19729,-3.7991 -1.31641,-6.35156c-0.06284,-1.27617 -0.06284,-1.27617 -0.12695,-2.57813c-0.03932,-0.88945 -0.07863,-1.7789 -0.11914,-2.69531c-0.04318,-0.89719 -0.08637,-1.79437 -0.13086,-2.71875c-0.10621,-2.21859 -0.20825,-4.4373 -0.30664,-6.65625z" fill="#65233A" id="svg_26"/>
  <path d="m84,30c12.21,0 24.42,0 37,0c4,16 4,16 3,19c-0.26812,-0.96937 -0.53625,-1.93875 -0.8125,-2.9375c-1.28287,-4.38878 -2.74157,-8.72471 -4.1875,-13.0625c-11.55,-0.66 -23.1,-1.32 -35,-2c0,-0.33 0,-0.66 0,-1z" fill="#598EB5" id="svg_29"/>
  <path d="m106,130c1.65,0 3.3,0 5,0c0,1.65 0,3.3 0,5c-0.99,-0.33 -1.98,-0.66 -3,-1c0,5.61 0,11.22 0,17c-0.66,0 -1.32,0 -2,0c-0.33,0.99 -0.66,1.98 -1,3c-1.32,-0.33 -2.64,-0.66 -4,-1c0.99,-0.33 1.98,-0.66 3,-1c0.06059,-1.25297 0.12117,-2.50594 0.18359,-3.79687c0.08443,-1.65106 0.16908,-3.3021 0.25391,-4.95313c0.05897,-1.2375 0.05897,-1.2375 0.11914,-2.5c0.0419,-0.79922 0.08379,-1.59844 0.12695,-2.42187c0.03666,-0.73316 0.07332,-1.46631 0.11109,-2.22168c0.20647,-2.11823 0.63664,-4.0584 1.20532,-6.10645z" fill="#F8CB64" id="svg_30"/>
  <path d="m85,124c4.29,0 8.58,0 13,0c0,1.98 0,3.96 0,6c-3.63,0 -7.26,0 -11,0c-0.66,-1.98 -1.32,-3.96 -2,-6z" fill="#6E9DA9" id="svg_31"/>
  <path d="m106,124c4.29,0 8.58,0 13,0c-0.66,1.98 -1.32,3.96 -2,6c-3.63,0 -7.26,0 -11,0c0,-1.98 0,-3.96 0,-6z" fill="#32647C" id="svg_32"/>
  <path d="m102,47c1.66843,0.32442 3.3348,0.65939 5,1c0.99,0.09281 0.99,0.09281 2,0.1875c3.37389,1.37064 5.40767,3.62785 7,6.8125c0.63577,4.54931 0.45246,8.64262 -1,13c-4.22747,4.22747 -6.85435,5.63126 -13,6c3,-2 3,-2 6.0625,-2.8125c3.0276,-0.90295 3.0276,-0.90295 4.3125,-3.25c0.86468,-4.06402 1.35075,-7.81496 0.625,-11.9375c-3.0399,-4.20222 -6.02882,-5.7283 -11,-7c0,-0.66 0,-1.32 0,-2z" fill="#4F83B0" id="svg_33"/>
  <path d="m64,115c0.33,0 0.66,0 1,0c0.02686,2.14577 0.04633,4.29163 0.0625,6.4375c0.0116,1.19496 0.0232,2.38992 0.03516,3.62109c-0.09766,2.94141 -0.09766,2.94141 -1.09766,3.94141c-0.23679,2.69236 -0.42198,5.36498 -0.5625,8.0625c-0.04318,0.75861 -0.08637,1.51723 -0.13086,2.29883c-0.10638,1.87932 -0.20704,3.75897 -0.30664,5.63867c0.99,0.33 1.98,0.66 3,1c-2.75,4.875 -2.75,4.875 -5,6c-0.23879,-8.13196 0.07532,-16.04301 0.9375,-24.125c0.08685,-0.81702 0.1737,-1.63405 0.26318,-2.47583c0.40023,-3.55208 0.87531,-6.94004 1.79932,-10.39917z" fill="#871E21" id="svg_34"/>
  <path d="m113,132c0.99,0.33 1.98,0.66 3,1c-0.30727,2.81316 -0.62055,5.62543 -0.9375,8.4375c-0.08701,0.80244 -0.17402,1.60488 -0.26367,2.43164c-0.68555,6.01758 -0.68555,6.01758 -1.79883,7.13086c-0.28221,2.58022 -0.4482,5.1603 -0.62109,7.75c-0.12504,0.7425 -0.25008,1.485 -0.37891,2.25c-0.66,0.33 -1.32,0.66 -2,1c0.23717,-3.3204 0.47479,-6.64075 0.71484,-9.96094c0.19138,-2.67141 0.3684,-5.34268 0.53907,-8.01562c0.08121,-1.24524 0.16242,-2.49047 0.24609,-3.77344c0.07219,-1.14984 0.14438,-2.29969 0.21875,-3.48437c0.28125,-2.76563 0.28125,-2.76563 1.28125,-4.76563z" fill="#EEAC12" id="svg_35"/>
  <path d="m107,110c0.33,0 0.66,0 1,0c0,1.98 0,3.96 0,6c5.94,0 11.88,0 18,0c0,-1.98 0,-3.96 0,-6c0.33,0 0.66,0 1,0c0.31563,5.26053 -0.33409,8.44574 -3,13c-0.66,-0.66 -1.32,-1.32 -2,-2c0.33,-0.66 0.66,-1.32 1,-2c-5.28,-0.33 -10.56,-0.66 -16,-1c0,-2.64 0,-5.28 0,-8z" fill="#672329" id="svg_36"/>
  <path d="m98,124c0.33,0 0.66,0 1,0c0.04898,0.55688 0.09797,1.11375 0.14844,1.6875c0.37631,3.84101 0.82898,7.47823 1.91406,11.1875c1.36301,4.98762 1.10722,9.99577 0.9375,15.125c-0.66,0 -1.32,0 -2,0c-1.61693,-9.49947 -2.2635,-18.36775 -2,-28z" fill="#C33D2A" id="svg_37"/>
  <path d="m77,107c6.27,0 12.54,0 19,0c0,0.99 0,1.98 0,3c-5.94,0 -11.88,0 -18,0c-0.33,-0.99 -0.66,-1.98 -1,-3z" fill="#60373E" id="svg_38"/>
  <path d="m107,133c0.99,0 1.98,0 3,0c1.23185,2.4637 1.16732,4.18945 1.1875,6.9375c0.01418,0.87527 0.02836,1.75055 0.04297,2.65234c-0.23047,2.41016 -0.23047,2.41016 -2.23047,5.41016c-0.66,-0.33 -1.32,-0.66 -2,-1c0,-4.62 0,-9.24 0,-14z" fill="#F6E159" id="svg_40"/>
  <path d="m107,118c5.61,0 11.22,0 17,0c-0.66,1.32 -1.32,2.64 -2,4c-4.95,-0.33 -9.9,-0.66 -15,-1c0,-0.99 0,-1.98 0,-3z" fill="#ADCBE1" id="svg_41"/>
  <path d="m76,93c0.33,0 0.66,0 1,0c1.10229,4.40915 1.07655,8.48382 1,13c2.31284,-0.14026 4.62528,-0.28736 6.9375,-0.4375c1.28777,-0.08121 2.57555,-0.16242 3.90234,-0.24609c3.0204,0.0344 3.0204,0.0344 4.16016,-1.31641c0.23364,-1.84892 0.41304,-3.70488 0.5625,-5.5625c0.08379,-1.01191 0.16758,-2.02383 0.25391,-3.06641c0.09088,-1.17369 0.09088,-1.17369 0.18359,-2.37109c0.33,0 0.66,0 1,0c0.495,6.93 0.495,6.93 1,14c-6.27,0 -12.54,0 -19,0c-0.8373,-5.02378 -1.0862,-9.00067 -1,-14z" fill="#8BADC8" id="svg_42"/>
  <path d="m95,166c3.16621,3.16621 3.48067,4.0009 4.1875,8.1875c0.15855,0.90105 0.31711,1.80211 0.48047,2.73047c0.16435,1.0306 0.16435,1.0306 0.33203,2.08203c0.33,-1.98 0.66,-3.96 1,-6c0.33,0 0.66,0 1,0c0,4.95 0,9.9 0,15c-0.66,-1.32 -1.32,-2.64 -2,-4c-0.66,0 -1.32,0 -2,0c-0.99,-5.94 -1.98,-11.88 -3,-18z" fill="#FCE882" id="svg_43"/>
  <path d="m102,110c0.99,0.495 0.99,0.495 2,1c0.44922,1.99609 0.44922,1.99609 0.6875,4.4375c0.08637,0.80309 0.17273,1.60617 0.26172,2.43359c0.05078,2.12891 0.05078,2.12891 -0.94922,4.12891c0.66,0 1.32,0 2,0c-0.3125,2.875 -0.3125,2.875 -1,6c-0.99,0.66 -1.98,1.32 -3,2c0,-6.6 0,-13.2 0,-20z" fill="#B00806" id="svg_44"/>
  <path d="m111,58c0.66,0 1.32,0 2,0c0.47232,4.81765 0.74976,7.94151 -2.125,12c-3.09492,2.15299 -5.14709,2.73991 -8.875,3c0,-0.99 0,-1.98 0,-3c1.11375,-0.30937 2.2275,-0.61875 3.375,-0.9375c1.98004,-0.7222 1.98004,-0.7222 3.625,-2.0625c1.21556,-2.94238 1.67577,-5.84371 2,-9z" fill="#6E1E10" id="svg_45"/>
  <path d="m93,175c1.9375,0.375 1.9375,0.375 4,1c1.38226,2.76452 1.09525,5.04614 1.0625,8.125c-0.00902,1.0957 -0.01805,2.19141 -0.02734,3.32031c-0.01161,0.84305 -0.02321,1.6861 -0.03516,2.55469c-3.68173,-4.69042 -5.35474,-8.96943 -5,-15z" fill="#FDCD48" id="svg_46"/>
  <path d="m106,118c0.33,0.99 0.66,1.98 1,3c4.29,0 8.58,0 13,0c0,0.99 0,1.98 0,3c-4.62,0 -9.24,0 -14,0c0,-1.98 0,-3.96 0,-6z" fill="#5D1D2E" id="svg_47"/>
  <path d="m89,168c0.66,0 1.32,0 2,0c2.8524,6.31603 3.95213,13.18882 5,20c-3.24915,-2.61608 -4.02394,-5.50992 -5.1875,-9.4375c-0.51627,-1.69963 -0.51627,-1.69963 -1.04297,-3.43359c-0.76953,-3.12891 -0.76953,-3.12891 -0.76953,-7.12891z" fill="#F0D268" id="svg_48"/>
  <path d="m110,11c0.66,0 1.32,0 2,0c2.31,4.62 4.62,9.24 7,14c-3,1 -3,1 -7,1c0,-0.66 0,-1.32 0,-2c0.99,0 1.98,0 3,0c0,-1.32 0,-2.64 0,-4c-0.99,-0.33 -1.98,-0.66 -3,-1c-0.14437,-0.76312 -0.28875,-1.52625 -0.4375,-2.3125c-0.52576,-2.76923 -0.52576,-2.76923 -1.5625,-5.6875z" fill="#7F131B" id="svg_49"/>
  <path d="m99,123c0.99,0.33 1.98,0.66 3,1c0,5.61 0,11.22 0,17c-0.33,0 -0.66,0 -1,0c-1.82332,-6.15371 -2.2362,-11.59647 -2,-18z" fill="#D12926" id="svg_50"/>
  <path d="m104,136c0.33,0 0.66,0 1,0c0.09688,5.44693 0.12862,10.63905 -1,16c-0.66,0 -1.32,0 -2,0c-0.05385,-2.29141 -0.09272,-4.58318 -0.125,-6.875c-0.0232,-1.27617 -0.04641,-2.55234 -0.07031,-3.86719c0.19531,-3.25781 0.19531,-3.25781 2.19531,-5.25781z" fill="#9F1604" id="svg_52"/>
  <path d="m108,185c0.66,0.66 1.32,1.32 2,2c-0.75725,1.9844 -1.53123,3.96243 -2.3125,5.9375c-0.42926,1.10215 -0.85852,2.2043 -1.30078,3.33984c-1.38672,2.72266 -1.38672,2.72266 -4.38672,3.72266c0,-1.32 0,-2.64 0,-4c0.99,0 1.98,0 3,0c0,-1.98 0,-3.96 0,-6c0.66,0 1.32,0 2,0c0.33,-1.65 0.66,-3.3 1,-5z" fill="#EDAC32" id="svg_53"/>
  <path d="m87,130c1.98,0 3.96,0 6,0c-0.99,0.33 -1.98,0.66 -3,1c0,0.66 0,1.32 0,2c-0.99,0 -1.98,0 -3,0c0,6.27 0,12.54 0,19c-0.33,0 -0.66,0 -1,0c-0.02895,-3.29165 -0.04678,-6.58326 -0.0625,-9.875c-0.01257,-1.40572 -0.01257,-1.40572 -0.02539,-2.83984c-0.00322,-0.8959 -0.00645,-1.7918 -0.00977,-2.71485c-0.00523,-0.82741 -0.01047,-1.65483 -0.01587,-2.50732c0.11353,-2.06299 0.11353,-2.06299 1.11353,-4.06299z" fill="#ECCF69" id="svg_54"/>
  <path d="m103,56c0.33,0.66 0.66,1.32 1,2c1.65,-0.33 3.3,-0.66 5,-1c0,1.98 0,3.96 0,6c-1.98,0.33 -3.96,0.66 -6,1c0,-2.64 0,-5.28 0,-8z" fill="#EDE861" id="svg_55"/>
  <path d="m113,132c0.99,0.33 1.98,0.66 3,1c-0.66,5.61 -1.32,11.22 -2,17c-0.33,0 -0.66,0 -1,0c0,-5.94 0,-11.88 0,-18z" fill="#F9A509" id="svg_58"/>
  <path d="m126,96c0.33,0 0.66,0 1,0c0.19531,6.05469 0.19531,6.05469 0,8c-2,2 -2,2 -5.47656,2.19531c-1.38295,-0.0133 -2.76583,-0.03715 -4.14844,-0.07031c-0.70641,-0.00902 -1.41281,-0.01805 -2.14063,-0.02734c-1.74493,-0.02358 -3.48969,-0.05946 -5.23437,-0.09766c0,-0.33 0,-0.66 0,-1c0.91523,-0.04898 1.83047,-0.09797 2.77344,-0.14844c1.18851,-0.07476 2.37703,-0.14953 3.60156,-0.22656c1.18336,-0.06961 2.36672,-0.13922 3.58594,-0.21094c3.14468,-0.11623 3.14468,-0.11623 5.03906,-2.41406c0.39764,-1.98821 0.73775,-3.98944 1,-6z" fill="#398ECB" id="svg_59"/>
  <path d="m102,88c1.32,0.33 2.64,0.66 4,1c0.33,2.31 0.66,4.62 1,7c-0.33,-0.66 -0.66,-1.32 -1,-2c-2.02463,-0.65213 -2.02463,-0.65213 -4,-1c0,-1.65 0,-3.3 0,-5z" fill="#A80F12" id="svg_62"/>
  <path d="m61,142c0.99,1.485 0.99,1.485 2,3c0.99,0.33 1.98,0.66 3,1c-2.75,4.875 -2.75,4.875 -5,6c0,-3.3 0,-6.6 0,-10z" fill="#701217" id="svg_66"/>
  <path d="m108,125c2.64,0 5.28,0 8,0c0,0.99 0,1.98 0,3c-2.64,0 -5.28,0 -8,0c0,-0.99 0,-1.98 0,-3z" fill="#196B93" id="svg_67"/>
  <path d="m126,110c0.33,0 0.66,0 1,0c0.31563,5.26053 -0.33409,8.44574 -3,13c-0.66,-0.66 -1.32,-1.32 -2,-2c0.33,-0.66 0.66,-1.32 1,-2c-0.66,-0.33 -1.32,-0.66 -2,-1c0,-0.66 0,-1.32 0,-2c1.65,0 3.3,0 5,0c0,-1.98 0,-3.96 0,-6z" fill="#731322" id="svg_68"/>
  <path d="m75,125c1.32,0.33 2.64,0.66 4,1c-1.98,2.97 -3.96,5.94 -6,9c-1.39196,-4.17588 0.17677,-6.13475 2,-10z" fill="#7C1010" id="svg_69"/>
  <path d="m106,124c0.99,0.33 1.98,0.66 3,1c0,0.99 0,1.98 0,3c2.64,0.33 5.28,0.66 8,1c0,0.33 0,0.66 0,1c-3.63,0 -7.26,0 -11,0c0,-1.98 0,-3.96 0,-6z" fill="#697364" id="svg_70"/>
  <path d="m102,47c0,0.66 0,1.32 0,2c-4.455,1.485 -4.455,1.485 -9,3c-0.33,-1.32 -0.66,-2.64 -1,-4c3.40563,-0.77843 6.50766,-1.09978 10,-1z" fill="#86B0D6" id="svg_71"/>
  <path d="m90,48c0.66,0 1.32,0 2,0c0.33,1.65 0.66,3.3 1,5c-1.32,0.33 -2.64,0.66 -4,1c-0.625,-1.875 -0.625,-1.875 -1,-4c0.66,-0.66 1.32,-1.32 2,-2z" fill="#70C2E2" id="svg_73"/>
  <path d="m94,70c2.64,0.99 5.28,1.98 8,3c0,0.66 0,1.32 0,2c-2.31,0 -4.62,0 -7,0c-0.33,-1.65 -0.66,-3.3 -1,-5z" fill="#82B1DA" id="svg_74"/>
  <path d="m109,68c-0.33,1.32 -0.66,2.64 -1,4c-1.98,0.33 -3.96,0.66 -6,1c0,-0.99 0,-1.98 0,-3c4.75,-2 4.75,-2 7,-2z" fill="#671714" id="svg_75"/>
  <path d="m98,49c7.75,-0.125 7.75,-0.125 10,1c-0.33,0.99 -0.66,1.98 -1,3c-2.97,-0.99 -5.94,-1.98 -9,-3c0,-0.33 0,-0.66 0,-1z" fill="#6F201F" id="svg_76"/>
    <path style="vector-effect: non-scaling-stroke;" d="m101,0c0.33,0 0.66,0 1,0c0,2.64 0,5.28 0,8c-0.99,0.495 -0.99,0.495 -2,1c0.33,-1.32 0.66,-2.64 1,-4c-1.32,0.33 -2.64,0.66 -4,1c1.15173,-2.468 2.04784,-4.04784 4,-6z" fill="#AD2223" id="svg_77"/>
  <path d="m93,58c0.99,0.33 1.98,0.66 3,1c0,2.64 0,5.28 0,8c-0.99,-0.66 -1.98,-1.32 -3,-2c-0.1875,-3.625 -0.1875,-3.625 0,-7z" fill="#FEDFB3" id="svg_78"/>
  <path d="m94,93c0.33,0 0.66,0 1,0c0.33,4.62 0.66,9.24 1,14c-1.32,-0.33 -2.64,-0.66 -4,-1c0.33,-0.66 0.66,-1.32 1,-2c0.2275,-1.87057 0.40963,-3.74686 0.5625,-5.625c0.08379,-1.00289 0.16758,-2.00578 0.25391,-3.03906c0.06058,-0.77086 0.12117,-1.54172 0.18359,-2.33594z" fill="#94A4BC" id="svg_80"/>
  <path d="m103,64c0.66,0.33 1.32,0.66 2,1c0,0.66 0,1.32 0,2c0.99,0.33 1.98,0.66 3,1c-0.66,0.66 -1.32,1.32 -2,2c-1.32,0 -2.64,0 -4,0c0.33,-1.98 0.66,-3.96 1,-6z" fill="#F5D678" id="svg_81"/>
  <path d="m98,52c0.33,0.66 0.66,1.32 1,2c-0.9375,2.125 -0.9375,2.125 -2,4c-1.32,-0.33 -2.64,-0.66 -4,-1c1.65,-1.65 3.3,-3.3 5,-5z" fill="#FCD2A4" id="svg_82"/>
  <path d="m101,190c0.33,0 0.66,0 1,0c0,3.3 0,6.6 0,10c-0.33,-1.32 -0.66,-2.64 -1,-4c-0.66,0 -1.32,0 -2,0c0.875,-4.875 0.875,-4.875 2,-6z" fill="#FECB43" id="svg_83"/>
  <path d="m106,130c1.65,0 3.3,0 5,0c0,1.65 0,3.3 0,5c-2.5,-1.375 -2.5,-1.375 -5,-3c0,-0.66 0,-1.32 0,-2z" fill="#F9DB67" id="svg_85"/>
  <path d="m93,130c1.65,0 3.3,0 5,0c0,0.66 0,1.32 0,2c-0.66,0 -1.32,0 -2,0c0,1.32 0,2.64 0,4c-0.66,0 -1.32,0 -2,0c-0.33,-1.98 -0.66,-3.96 -1,-6z" fill="#F9ECA9" id="svg_86"/>
  <path d="m128,89c0.66,0 1.32,0 2,0c0.66,1.65 1.32,3.3 2,5c-1.32,0.33 -2.64,0.66 -4,1c0,-1.98 0,-3.96 0,-6z" fill="#701925" id="svg_87"/>
 </g>

</svg>