<svg width="172" height="180.00000000000003" xmlns="http://www.w3.org/2000/svg" version="1.1">

 <g>
  <title _mstHash="494" _mstTextHash="5637814">第 1 层</title>
  <path id="svg_1" fill="#5CADCA" d="m105,40c2.475,1.98 2.475,1.98 5,4c-1.32022,3.45065 -2.82206,6.6824 -4.58203,9.92969c-0.51385,0.94963 -1.02771,1.89927 -1.55713,2.87768c-0.8283,1.51848 -0.8283,1.51848 -1.67334,3.06763c-0.57025,1.04906 -1.1405,2.09811 -1.72803,3.17896c-6.95462,12.75076 -13.95329,25.50954 -21.45947,37.94604c-2.9375,-0.375 -2.9375,-0.375 -6,-1c-0.33,-0.66 -0.66,-1.32 -1,-2c0.82562,-1.38482 1.71131,-2.73413 2.625,-4.0625c1.93276,-3.33534 1.93276,-3.33534 2.25391,-7.07422c-0.78683,-2.40493 -1.7676,-4.58823 -2.87891,-6.86328c-0.76957,-1.67643 -0.76957,-1.67643 -1.55469,-3.38672c-1.0603,-2.30577 -2.13876,-4.6033 -3.23828,-6.89062c-1.20703,-2.72266 -1.20703,-2.72266 -1.20703,-4.72266c-0.61875,-0.12375 -1.2375,-0.2475 -1.875,-0.375c-2.125,-0.625 -2.125,-0.625 -4.125,-2.625c-0.36425,-2.84112 -0.4842,-4.35671 1.26685,-6.68311c1.73315,-1.31689 1.73315,-1.31689 3.63232,-1.36035c0.70745,0.13552 1.41491,0.27103 2.1438,0.41065c5.23513,0.77801 10.03394,0.36177 15.26953,-0.24219c0.87979,-0.09152 1.75957,-0.18305 2.66602,-0.27734c5.59396,-0.51339 5.59396,-0.51339 11.02148,-1.84766c2.02113,-2.75386 2.02113,-2.75386 3.75,-6.0625c0.61359,-1.10473 1.22719,-2.20945 1.85937,-3.34766c0.45891,-0.85464 0.91782,-1.70929 1.39063,-2.58984z"/>
  <path id="svg_2" fill="#7FC1CF" d="m111,47c3,1 3,1 4.09766,2.56641c4.6719,9.66534 6.3356,18.40256 3.14843,28.92187c-4.14746,10.04761 -10.6129,17.33122 -20.73047,21.54688c-5.63475,1.88116 -10.59987,2.25109 -16.51562,1.96484c1.56712,-5.6398 4.3115,-10.30465 7.25,-15.3125c1.07667,-1.8574 2.15214,-3.71551 3.22656,-5.57422c0.5688,-0.98275 1.1376,-1.9655 1.72364,-2.97803c3.8152,-6.64608 7.52714,-13.35068 11.2539,-20.04663c0.56429,-1.01151 1.12858,-2.02302 1.70996,-3.06518c0.74951,-1.34699 0.74951,-1.34699 1.51416,-2.72119c1.03843,-1.80872 2.16489,-3.56692 3.32178,-5.30225z"/>
  <path id="svg_3" fill="#455365" d="m112,100c3.96,0 7.92,0 12,0c2.17127,8.41767 4.05038,16.83825 5.6875,25.375c0.22494,1.13566 0.44988,2.27133 0.68164,3.44141c0.31808,1.64935 0.31808,1.64935 0.64258,3.33203c0.19038,0.98146 0.38076,1.96292 0.5769,2.97412c0.41138,2.87744 0.41138,2.87744 0.41138,8.87744c-9.57,0 -19.14,0 -29,0c0.64884,-5.83953 1.34131,-11.10666 2.59375,-16.77344c0.15159,-0.69042 0.30317,-1.38085 0.45935,-2.09219c0.31719,-1.44062 0.63659,-2.88075 0.95813,-4.32041c0.49209,-2.20385 0.97731,-4.40913 1.46143,-6.61474c2.36568,-10.71425 2.36568,-10.71425 3.52734,-14.19922z"/>
  <path id="svg_4" fill="#436F7F" d="m66.91016,53.96094c1.06541,0.20496 1.06541,0.20496 2.15234,0.41406c4.25297,0.63692 7.91466,0.40561 12.16407,-0.11718c5.24455,-0.48753 10.51153,-0.33204 15.77343,-0.25782c-0.33,0.99 -0.66,1.98 -1,3c-1.08539,0.13278 -2.17078,0.26555 -3.28906,0.40235c-1.44532,0.17832 -2.89063,0.3567 -4.33594,0.53515c-0.71285,0.08701 -1.4257,0.17403 -2.16015,0.26367c-0.70254,0.08702 -1.40508,0.17403 -2.12891,0.26368c-0.63889,0.07855 -1.27778,0.1571 -1.93603,0.23803c-2.72493,0.37659 -5.43651,0.84489 -8.14991,1.29712c4.95,2.64 9.9,5.28 15,8c-0.33,0.99 -0.66,1.98 -1,3c-4.14298,-0.59834 -7.18194,-2.00664 -10.8125,-4.0625c-0.97582,-0.54785 -1.95164,-1.0957 -2.95703,-1.66015c-0.73605,-0.42153 -1.47211,-0.84305 -2.23047,-1.27735c0.24758,0.51909 0.49516,1.03818 0.75025,1.573c1.1183,2.36508 2.21536,4.73943 3.31225,7.1145c0.38995,0.81662 0.77989,1.63324 1.18164,2.47461c2.81269,6.14809 2.81269,6.14809 2.50196,9.91992c-0.24621,0.63293 -0.49242,1.26586 -0.7461,1.91797c-0.66,0 -1.32,0 -2,0c-1.50605,-3.28893 -3.0038,-6.58157 -4.5,-9.875c-0.64388,-1.40572 -0.64388,-1.40572 -1.30078,-2.83984c-0.40605,-0.8959 -0.81211,-1.7918 -1.23047,-2.71484c-0.37705,-0.82742 -0.7541,-1.65484 -1.14257,-2.50733c-0.82618,-2.06299 -0.82618,-2.06299 -0.82618,-4.06299c-0.61875,-0.12375 -1.2375,-0.2475 -1.875,-0.375c-2.125,-0.625 -2.125,-0.625 -4.125,-2.625c-0.36417,-2.84058 -0.48361,-4.35667 1.26563,-6.68359c1.73437,-1.31641 1.73437,-1.31641 3.64453,-1.35547z"/>
  <path id="svg_5" fill="#50B1D4" d="m91,68c0.99,0.33 1.98,0.66 3,1c0.85474,1.73022 0.85474,1.73022 1,4c-1.0481,2.51782 -1.0481,2.51782 -2.67578,5.31641c-0.58072,1.01127 -1.16145,2.02254 -1.75977,3.06445c-0.61939,1.04994 -1.23879,2.09988 -1.87695,3.18164c-0.60779,1.05381 -1.21559,2.10762 -1.8418,3.19336c-2.20439,3.80847 -4.40437,7.58215 -6.8457,11.24414c-2.625,0.1875 -2.625,0.1875 -5,0c0.63166,-2.91736 1.56692,-5.35194 2.9375,-8c0.33902,-0.66 0.67805,-1.32 1.02734,-2c0.34161,-0.66 0.68321,-1.32 1.03516,-2c0.31066,-0.70125 0.62133,-1.4025 0.94141,-2.125c1.05859,-1.875 1.05859,-1.875 4.05859,-3.875c0.67259,-2.33163 1.33847,-4.6652 2,-7c1.20385,-2.13346 2.54932,-4.01741 4,-6z"/>
  <path id="svg_6" fill="#466A78" d="m97,54c-0.33,0.99 -0.66,1.98 -1,3c-1.08539,0.13277 -2.17078,0.26555 -3.28906,0.40234c-1.44532,0.17832 -2.89064,0.35671 -4.33594,0.53516c-0.71285,0.08701 -1.4257,0.17402 -2.16016,0.26367c-0.70254,0.08701 -1.40507,0.17403 -2.1289,0.26367c-0.63889,0.07856 -1.27779,0.15711 -1.93604,0.23804c-2.72492,0.37659 -5.4365,0.84489 -8.1499,1.29712c4.95,2.64 9.9,5.28 15,8c-0.33,0.99 -0.66,1.98 -1,3c-4.14299,-0.59835 -7.18194,-2.00664 -10.8125,-4.0625c-0.97582,-0.54785 -1.95164,-1.0957 -2.95703,-1.66016c-0.73606,-0.42152 -1.47211,-0.84304 -2.23047,-1.27734c0,-2.64 0,-5.28 0,-8c7.07662,-3.53831 17.32712,-2.10824 25,-2z"/>
  <path id="svg_7" fill="#D3F6FB" d="m110,44c0.89354,2.44945 1.13837,3.62676 0.21826,6.10864c-0.42523,0.75435 -0.85046,1.50869 -1.28857,2.28589c-0.47824,0.8623 -0.95649,1.72461 -1.44922,2.61304c-0.52981,0.92563 -1.05961,1.85125 -1.60547,2.80493c-0.53754,0.96108 -1.07508,1.92215 -1.62891,2.91235c-1.73691,3.09852 -3.49106,6.18687 -5.24609,9.27515c-1.18585,2.10623 -2.37075,4.213 -3.55469,6.32031c-4.45119,7.91068 -8.9372,15.80133 -13.44531,23.67969c-0.66,0 -1.32,0 -2,0c1.28624,-4.19314 2.87401,-7.86183 5.01953,-11.68359c0.60449,-1.08241 1.20898,-2.16482 1.83179,-3.28003c0.64719,-1.14638 1.29438,-2.29276 1.96118,-3.47388c0.66912,-1.19353 1.33781,-2.3873 2.0061,-3.5813c1.71465,-3.05996 3.43584,-6.11617 5.15979,-9.1709c1.00051,-1.77291 1.99998,-3.5464 2.99915,-5.32007c3.66436,-6.50231 7.33777,-12.99942 11.02246,-19.49023z"/>
  <path id="svg_9" fill="#6F91AF" d="m58,33c0.33,0.99 0.66,1.98 1,3c-0.66387,0.34031 -1.32773,0.68063 -2.01172,1.03125c-6.25091,3.43116 -9.87387,6.53713 -12.98828,12.96875c-0.33,0.66 -0.66,1.32 -1,2c-0.07116,2.37403 -0.08409,4.75001 -0.0625,7.125c0.00902,1.28133 0.01805,2.56266 0.02734,3.88281c0.01161,0.98742 0.02321,1.97485 0.03516,2.99219c-1.485,0.495 -1.485,0.495 -3,1c-2.55593,-5.11185 -1.73456,-12.508 -0.16406,-17.83594c3.02804,-6.60478 10.02128,-16.16406 18.16406,-16.16406z"/>
  <path id="svg_10" fill="#97A0AD" d="m103,139c9.57,0.33 19.14,0.66 29,1c0,1.32 0,2.64 0,4c-9.57,0 -19.14,0 -29,0c0,-1.65 0,-3.3 0,-5z"/>
  <path id="svg_11" fill="#6B8CB0" d="m61,40c0,0.66 0,1.32 0,2c-0.79664,0.32871 -0.79664,0.32871 -1.60938,0.66406c-5.03257,2.25915 -8.05745,4.10963 -10.39062,9.33594c-0.59801,3.99693 -0.86934,7.96262 -1,12c-0.99,0 -1.98,0 -3,0c-1.66849,-5.00546 -1.5947,-9.25028 0.5625,-14.0625c3.02221,-5.54791 8.68692,-12.18769 15.4375,-9.9375z"/>
  <path id="svg_12" fill="#C54D47" d="m67.5625,54.25c2.4375,0.75 2.4375,0.75 4.4375,1.75c0,2.31 0,4.62 0,7c-2.24195,1.36118 -3.47827,2.06138 -6.125,1.75c-1.875,-0.75 -1.875,-0.75 -3.875,-2.75c-0.36796,-2.87012 -0.37509,-4.40775 1.1875,-6.875c1.8125,-1.125 1.8125,-1.125 4.375,-0.875z"/>
  <path id="svg_13" fill="#5CADC5" d="m105,40c1.65,1.32 3.3,2.64 5,4c-1.24917,3.45925 -2.67528,6.14693 -5,9c-0.66,-1.98 -1.32,-3.96 -2,-6c-0.99,2.31 -1.98,4.62 -3,7c-1.98,0 -3.96,0 -6,0c0.58266,-0.20367 1.16531,-0.40734 1.76562,-0.61719c3.12066,-1.93131 4.22012,-4.31858 5.98438,-7.50781c0.61359,-1.0957 1.22719,-2.19141 1.85937,-3.32031c0.45891,-0.84305 0.91782,-1.6861 1.39063,-2.55469z"/>
  <path id="svg_14" fill="#6C8DAB" d="m63,46c-1,3 -1,3 -3.875,4.625c-4.17813,3.17538 -4.9166,6.41421 -6.125,11.375c-0.66,0 -1.32,0 -2,0c-0.50046,-6.13062 0.61557,-9.06841 4,-14c3.22792,-2.15194 4.28401,-2.20086 8,-2z"/>
  <path id="svg_15" fill="#545A65" d="m118,83c2.4375,0.75 2.4375,0.75 5,2c1,1.9375 1,1.9375 1,4c-1.1875,1.8125 -1.1875,1.8125 -3,3c-2.32489,-0.2818 -3.90893,-0.95446 -6,-2c0.61278,-2.96175 1.25373,-4.38059 3,-7z"/>
  <path id="svg_18" fill="#505765" d="m114,93c2.31,0 4.62,0 7,0c0,1.98 0,3.96 0,6c-2.31,0 -4.62,0 -7,0c0,-1.98 0,-3.96 0,-6z"/>
  <path id="svg_19" fill="#E2402E" d="m65,56c1.32,0 2.64,0 4,0c0,2.31 0,4.62 0,7c-2.97,-0.495 -2.97,-0.495 -6,-1c0.875,-4.875 0.875,-4.875 2,-6z"/>
  <path id="svg_21" fill="#8EC0C8" d="m116,77c0.66,0 1.32,0 2,0c-1.23905,6.47059 -4.2899,11.3694 -9,16c-2.22656,0.75781 -2.22656,0.75781 -4,1c0.66,-0.33 1.32,-0.66 2,-1c1.13351,-2.0167 1.13351,-2.0167 2,-4c0.66,0 1.32,0 2,0c0.26812,-0.68062 0.53625,-1.36125 0.8125,-2.0625c1.34803,-3.33461 2.76286,-6.63493 4.1875,-9.9375z"/>
  <path id="svg_23" fill="#376776" d="m92.6875,53.9375c1.21236,0.01354 1.21236,0.01354 2.44922,0.02734c0.92232,0.01741 0.92232,0.01741 1.86328,0.03516c-0.33,0.99 -0.66,1.98 -1,3c-3.3,0.33 -6.6,0.66 -10,1c-0.33,-0.99 -0.66,-1.98 -1,-3c2.88211,-0.9607 4.6985,-1.10582 7.6875,-1.0625z"/>
  <path id="svg_24" fill="#7A9BB5" d="m44,54c0.66,0.66 1.32,1.32 2,2c0.66,-0.33 1.32,-0.66 2,-1c0,2.97 0,5.94 0,9c-0.99,0 -1.98,0 -3,0c-1.15775,-3.47325 -1.06867,-6.36067 -1,-10z"/>
  <path id="svg_25" fill="#427181" d="m81,64c3.96,1.98 3.96,1.98 8,4c-0.33,0.99 -0.66,1.98 -1,3c-4.75,-0.75 -4.75,-0.75 -7,-3c0,-1.32 0,-2.64 0,-4z"/>
  <path id="svg_26" fill="#75AEC2" d="m105,40c0.66,0.66 1.32,1.32 2,2c-0.78375,1.05187 -1.5675,2.10375 -2.375,3.1875c-2.03009,2.82947 -3.51613,5.48589 -4.625,8.8125c-1.98,0 -3.96,0 -6,0c0.58266,-0.20367 1.16531,-0.40734 1.76562,-0.61719c3.12066,-1.93131 4.22012,-4.31858 5.98438,-7.50781c0.61359,-1.0957 1.22719,-2.19141 1.85937,-3.32031c0.45891,-0.84305 0.91782,-1.6861 1.39063,-2.55469z"/>
  <path id="svg_27" fill="#7794AD" d="m58,33c0.33,0.99 0.66,1.98 1,3c-6.75,4 -6.75,4 -9,4c0,-1.32 0,-2.64 0,-4c5.75,-3 5.75,-3 8,-3z"/>
  <path id="svg_29" fill="#49515D" d="m118,83c0.99,0.33 1.98,0.66 3,1c-0.99,2.31 -1.98,4.62 -3,7c-0.99,-0.33 -1.98,-0.66 -3,-1c0.61278,-2.96175 1.25373,-4.38059 3,-7z"/>
  <path id="svg_32" fill="#496869" d="m70,63c1.5625,1.75 1.5625,1.75 3,4c-0.3125,2.25 -0.3125,2.25 -1,4c-0.66,0 -1.32,0 -2,0c-1.46063,-2.64739 -2,-3.89448 -2,-7c0.66,-0.33 1.32,-0.66 2,-1z"/>
  <path id="svg_33" fill="#7A95B4" d="m60.75,45.75c0.7425,0.0825 1.485,0.165 2.25,0.25c-1,3 -1,3 -3,4c-1.9996,0.03999 -4.00047,0.04347 -6,0c3.32308,-3.93846 3.32308,-3.93846 6.75,-4.25z"/>
  <path id="svg_34" fill="#7294B7" d="m61,40c0,0.66 0,1.32 0,2c-3.465,1.485 -3.465,1.485 -7,3c-0.33,-1.32 -0.66,-2.64 -1,-4c4.625,-2.125 4.625,-2.125 8,-1z"/>
  <path id="svg_36" fill="#66AFD2" d="m86,73c0.66,0.33 1.32,0.66 2,1c-0.42307,1.31722 -0.86397,2.62873 -1.3125,3.9375c-0.24363,0.7309 -0.48727,1.4618 -0.73828,2.21484c-0.94922,1.84766 -0.94922,1.84766 -3.94922,2.84766c0.70554,-3.66881 2.27736,-6.70451 4,-10z"/>
  <path id="svg_40" fill="#656E7B" d="m114,93c2.31,0 4.62,0 7,0c0,0.99 0,1.98 0,3c-1.98,0 -3.96,0 -6,0c-0.33,-0.99 -0.66,-1.98 -1,-3z"/>
  <path id="svg_42" fill="#6689AB" d="m49,37c0.99,0.33 1.98,0.66 3,1c-0.66,0 -1.32,0 -2,0c-0.10312,0.61875 -0.20625,1.2375 -0.3125,1.875c-0.6875,2.125 -0.6875,2.125 -3.6875,4.125c0,-4 0,-4 1.5,-5.75c0.495,-0.4125 0.99,-0.825 1.5,-1.25z"/>
  <path id="svg_44" fill="#3A6977" d="m72,69c0.66,0 1.32,0 2,0c0.33,1.65 0.66,3.3 1,5c-0.99,0.33 -1.98,0.66 -3,1c-1.125,-3.75 -1.125,-3.75 0,-6z"/>
 </g>
</svg>